<?xml version="1.0"?>
<svg xmlns:rdf="http://www.w3.org/1999/02/22-rdf-syntax-ns#" xmlns="http://www.w3.org/2000/svg" xmlns:cc="http://web.resource.org/cc/" xmlns:dc="http://purl.org/dc/elements/1.1/" xmlns:svg="http://www.w3.org/2000/svg" id="svg2" xml:space="preserve" overflow="visible" viewBox="0 0 321.629 340.27" enable-background="new 0 0 321.629 340.27">
	<g id="Layer_1">
		<path id="path7" d="m36.35 337.28c0.33-1.651 3.312-7.034 6.625-11.962 6.033-8.972 7.265-12.623 4.604-13.645-2.588-0.993-5.344 1.495-9.105 8.223-7.569 13.535-11.08 17.8-14.164 17.206-3.117-0.6-2.5-3.075 3.197-12.82 8.342-14.269 9.054-15.841 7.757-17.138-3.02-3.02-9.456 3.661-16.031 16.638-1.114 2.199-3.176 5.237-4.581 6.75-2.265 2.437-2.847 2.617-5.104 1.589-1.402-0.64-2.548-1.53-2.548-1.97s2.451-4.848 5.448-9.79c8.39-13.835 8.793-14.765 7.474-17.229-1.044-1.951-1.712-2.079-8.076-1.545-6.481 0.543-7.005 0.435-7.952-1.643-1.604-3.522 0.33-7.262 4.153-8.026 5.542-1.109 19.069-0.688 29.453 0.915 5.5 0.85 15.625 2.402 22.5 3.451s13.85 2.377 15.5 2.951c5.188 1.808 37.922 8.953 38.474 8.398 0.289-0.291-0.439-1.277-1.619-2.193-4.144-3.213-20.928-13.628-27.861-17.287-7.08-3.737-26.659-11.876-28.568-11.876-0.569 0-2.923-0.821-5.23-1.823-2.307-1.003-6.22-2.622-8.694-3.599-10.598-4.181-18.773-8.274-22.604-11.317-4.609-3.664-6.392-3.966-9.888-1.675-4.903 3.212-6.658-1.865-2.469-7.138 3.448-4.338 2.973-6.83-1.13-5.929-2.484 0.546-2.923 0.28-3.529-2.137-0.576-2.297-0.178-3.189 2.375-5.321 2.999-2.505 3.064-2.75 2.972-11.062-0.099-8.824 0.918-13.313 5.642-24.896 5.245-12.861 13.898-24.263 34.235-45.104 36.32-37.226 47.394-52.291 54.391-74.003 3.975-12.333 5.125-21.646 3.847-31.146-1.346-10.01-3.807-15.688-9.035-20.843-8.886-8.764-17.68-12.054-32.358-12.108-9.817-0.036-15.136 1.337-22.081 5.7-9.981 6.286-13.866 14.373-13.866 28.879 0 8.542 0.353 10.753 2.374 14.858 3.04 6.176 8.185 11.152 13.706 13.262 6.508 2.484 20.646 1.646 25.976-1.54 6.399-3.827 10.183-7.972 12.511-13.709 2.781-6.853 2.261-12.556-1.684-18.429-4.196-6.248-8.45-8.406-16.567-8.406-6.044 0-6.98 0.283-9.772 2.958-4.53 4.34-5.768 9.356-3.666 14.86 2.258 5.912 7.682 8.325 12.688 5.646 2.807-1.502 2.374-4.264-1.065-6.807-3.67-2.714-3.803-4.472-0.453-5.998 5.701-2.598 10.088-0.762 13.365 5.594 2.762 5.356-2.678 14.196-10.105 16.422-4.563 1.367-12.723-0.23-16.605-3.252-11.474-8.928-10.468-28.151 1.896-36.253 5.116-3.353 12.351-4.804 18.781-3.769 7.084 1.142 10.855 2.96 16.253 7.836 6.345 5.731 9.097 12.494 9.021 22.168-0.069 9.021-7.417 22.966-14.892 28.263-17.845 12.646-38.289 11.456-52.66-3.065-7.759-7.842-11.445-15.462-13.109-27.104-0.922-6.452 2.062-22.395 5.331-28.487 3.476-6.478 13.313-16.266 19.903-19.805 13.351-7.17 39.798-7.112 53.941 0.118 13.898 7.106 20.708 14.154 25.507 26.403 4.22 10.771 5.271 19.147 3.85 30.687-3.936 31.956-24.457 63.987-68.539 106.98-15.301 14.92-18.227 20.37-13.491 25.1 2.56 2.56 6.549 2.561 21.12 0.001 11.972-2.103 15.976-3.204 27.38-7.53 3.85-1.46 9.024-3.353 11.5-4.205 2.475-0.853 4.949-1.887 5.5-2.298 0.55-0.412 5.725-3.202 11.5-6.201 5.774-2.998 12.75-6.736 15.5-8.307 6.229-3.558 24.235-17.343 30.582-23.414 7.542-7.213 17.011-19.104 19.541-24.537 2.021-4.338 2.137-5.178 0.888-6.427-2.109-2.109-4.23-0.859-21.392 12.607-18.336 14.389-29.473 22.485-34.119 24.805-1.926 0.96-10.14 5.774-18.254 10.697-20.059 12.169-31.721 16.734-35.258 13.799-3.105-2.577-1.892-5.307 9.509-21.38 0.823-1.161 6.225-8.411 12.003-16.11 5.779-7.7 12.755-17.32 15.503-21.377 7.675-11.331 7.657-11.306 13.331-18.929 2.934-3.941 8.191-12.91 11.683-19.931 7.47-15.019 8.747-16.988 15.439-23.812 10.223-10.422 23.648-14.281 45.056-12.951 8.713 0.541 9.699 0.416 11.75-1.494 2.598-2.42 2.918-6.198 0.684-8.053-2.737-2.271-3.607-4.783-2.424-6.995 1.08-2.02 1.124-2.014 4.111 0.5 3.482 2.93 5.104 3.163 6.904 0.995 1.075-1.295 0.771-2.273-1.877-6.029-3.606-5.116-3.798-5.967-1.539-6.833 1.063-0.408 3.121 0.759 5.978 3.393 2.396 2.208 4.83 4.016 5.41 4.016 1.833 0 2.293-3.007 0.732-4.788-0.825-0.941-2.271-3.23-3.211-5.087-1.59-3.135-1.594-3.489-0.061-5 1.526-1.503 1.853-1.399 4.34 1.376 1.479 1.651 3.703 4.351 4.94 6l2.251 2.999 1.905-2.245c1.866-2.198 1.867-2.346 0.038-7.159-1.678-4.415-1.711-5.046-0.322-6.197 2.852-2.367 5.565 0.528 7.408 7.902 0.591 2.366 1.731 4.554 2.534 4.862 2.377 0.912 4.434-1.647 4.449-5.536 0.021-5.545 1-8.127 3.084-8.127 2.25 0 3.377 3.685 2.597 8.492-0.374 2.303-0.079 3.773 0.921 4.604 1.896 1.574 2.864 0.613 6.899-6.849 4.779-8.838 10.441-8.648 5.962 0.199-5.194 10.258-2.241 12.18 5.5 3.578 5.141-5.711 5.861-6.182 7.842-5.122 1.21 0.661 2.19 1.461 2.19 1.797 0 0.337-2.059 2.812-4.572 5.499-4.809 5.142-5.213 7.108-1.57 7.644 1.521 0.224 3.932-1.259 7.809-4.802 3.73-3.41 6.314-5.024 7.721-4.823 3.658 0.521 2.324 3.296-4.193 8.72-3.469 2.886-6.133 5.772-5.922 6.414 0.846 2.568 4.777 1.603 11.307-2.776 3.736-2.506 7.295-4.556 7.906-4.556 1.293 0 3.516 2.027 3.516 3.205 0 1.671-18.525 12.792-21.311 12.793-1.668 0.001-4.654-1.407-7.346-3.462-8.609-6.574-16.321-9.6-26.07-10.231-7.915-0.513-9.463-0.309-15.188 2.004-13.726 5.544-23.459 15.491-25.933 26.502-1.351 6.012 1.108 9.542 8.054 11.561 9.902 2.879 15.963 13.657 11.367 20.218-2.313 3.303-8.771 7.179-13.119 7.872-5.443 0.868-9.168-0.699-13.991-5.889-3.368-3.623-5.016-4.545-9.96-5.571-8.725-1.812-20.979-0.911-27.046 1.987-13.796 6.594-25.853 19.356-40.144 42.495-3.741 6.059-8.531 12.909-10.646 15.222-4.687 5.129-4.08 7.301 1.16 4.158 4.445-2.667 14.686-10.921 22.171-17.87 4.794-4.452 30.145-22.993 31.436-22.993 0.262 0 2.036-1.06 3.943-2.354 6.877-4.666 18.51-4.145 22.567 1.013 4.515 5.74 1.903 15.612-8.449 31.94-9.049 14.271-25.788 31.22-40.349 40.852-25.215 16.679-66.2 33.254-98.001 39.634-15.519 3.113-16.403 3.374-17.535 5.168-0.831 1.317-0.671 2.117 0.694 3.479 4.433 4.42 25.354 0.616 53.693-9.762 5.774-2.115 15-5.488 20.5-7.495 11.546-4.214 41.402-19.302 51.266-25.907 15.885-10.64 23.336-18.151 37.162-37.467 9.899-13.828 15.346-24.591 17.583-34.747 0.951-4.319 1.862-8.353 2.024-8.963s2.279-1.609 4.705-2.221c6.187-1.558 13.395-8.103 14.842-13.476 2.63-9.768-1.182-18.366-10.191-22.991-2.965-1.521-6.179-3.364-7.141-4.095-8.631-6.55 15.457-26.633 31.903-26.601 5.035 0.011 15.235 3.151 20.775 6.397 6.18 3.622 13.023 11.829 15.479 18.56 1.787 4.9 2.873 6.235 7.834 9.613 7.24 4.932 9.184 7.192 9.227 10.733 0.031 2.769-0.037 2.802-4.467 2.137-4.33-0.649-4.5-0.579-4.5 1.867 0 2.167 0.816 2.847 5.537 4.613 3.045 1.14 5.881 2.072 6.299 2.072 1.82 0 3.045 2.354 2.121 4.079-1.797 3.357-11.188 5.865-25.904 6.917-7.619 0.544-14.574 1.266-15.454 1.604-5.579 2.141 4.319 11.632 19.651 18.841 6.006 2.825 6.945 4.54 4.396 8.028-1.102 1.506-2.732 1.857-8.75 1.885-8.16 0.038-17.438-2.337-29.897-7.653-5.527-2.359-8.947-3.185-13-3.142-9.777 0.105-10.556 0.854-26.996 25.941-14.69 22.416-15.197 22.991-32.504 36.923-13.912 11.199-29.375 20.57-48 29.094-29.687 13.584-48.651 20.692-66.5 24.927-8.525 2.022-16.883 4.1-18.571 4.616-1.689 0.518-4.025 0.94-5.191 0.94-5.042 0-3.796 5.505 1.572 6.944 5.06 1.357 17.241-0.626 39.69-6.462 9.899-2.574 18.962-4.903 20.138-5.177 3.012-0.699 6.017 1.183 6.787 4.251 0.36 1.435 1.832 4.484 3.271 6.776 5.338 8.504 9.281 12.381 15.914 15.646 5.781 2.846 7.35 3.192 12.87 2.841 8.316-0.53 13.321-3.773 16.897-10.95 3.186-6.392 3.393-12.441 0.613-17.89-2.408-4.719-6.363-6.98-12.207-6.98-8.045 0-13.736 4.784-13.769 11.575-0.028 5.923 7.608 10.169 11.957 6.647 2.983-2.415 1.903-4.348-1.995-3.568-3.459 0.691-4.772-1.3-3.019-4.576 1.48-2.767 6.893-2.77 10.407-0.006 6.243 4.911 0.571 17.807-7.872 17.896-4.776 0.051-9.101-1.558-13.333-4.959-7.995-6.425-13.423-16.994-10.857-21.142 0.658-1.063 6.146-4.447 12.197-7.52 6.05-3.072 12.8-6.504 15-7.627 11.763-6.006 27.361-16.192 38-24.815 10.774-8.734 16.729-14.499 35.615-34.477 9.373-9.915 18.489-12.838 23.335-7.483 4.302 4.753 2.411 21.256-4.474 39.055-2.694 6.965-12.646 35.694-17.146 49.5-2.707 8.304-7.834 30.714-7.815 34.16 0.009 1.562 0.369 3.396 0.802 4.077 1.333 2.099 6.694-0.188 12.701-5.414 5.575-4.853 27.678-29.237 36.982-40.802 10.184-12.658 17.006-21.036 17.526-21.521 0.537-0.503 3.592-4.659 16.398-22.313 3.809-5.25 8.115-11.715 9.572-14.366 3.068-5.589 7.004-7.26 7.004-2.974 0 4.044-3.354 10.614-9.877 19.36-5.879 7.878-7.605 12.293-4.807 12.293 1.348 0 6.883-6.007 12.898-14 3.729-4.955 6.109-5.741 6.613-2.186 0.299 2.112-6.061 12.557-13.041 21.419-4.271 5.422-0.916 3.692 5.273-2.72 5.568-5.767 6.504-6.377 7.799-5.083 1.293 1.295 1.152 1.952-1.182 5.479-4.145 6.264-21.689 23.893-26.678 26.807-7.553 4.411-13.564 10.046-30.169 28.284-38.257 42.016-52.274 53.862-61.112 51.644-5.482-1.376-8.104-14.022-6.251-30.144 2.173-18.895 13.979-61.726 21.451-77.826 11.284-24.313 11.295-27.514 0.067-20.005-11.271 7.538-25.834 21.385-30.805 29.292-6.342 10.086-7.776 13.453-9.67 22.699-4.637 22.642-9.841 31.061-23.512 38.034-4.817 2.457-6.556 2.794-14 2.713-7.246-0.079-9.473-0.542-15.089-3.136-6.133-2.833-16.367-9.459-17.093-11.066-0.176-0.388-2.296-2.45-4.713-4.583-4.311-3.804-4.506-3.865-10.317-3.258-7.29 0.762-16.813 3.395-18.675 5.163-0.764 0.725-1.136 1.973-0.828 2.772 0.307 0.801 7.681 5.987 16.387 11.526 8.705 5.538 18.75 12.23 22.323 14.871 3.572 2.642 8.522 6.148 11 7.794 6.803 4.519 20.938 18.459 23.188 22.87 1.901 3.726 1.915 4.089 0.324 8.257-1.917 5.019-5.655 8.382-9.317 8.382-2.852 0-29.145-6.261-48.322-11.506-13.74-3.757-21.58-5.035-25.25-4.113-3.514 0.882-8.128 6.067-14.341 16.119-6.101 9.868-6.676 10.462-10.152 10.484-2.108 0.03-2.308-0.3-1.775-2.97z"/>
		<path id="path9" fill="#fff" d="m283 117.53c0-0.416-2.813-2.271-6.25-4.122-11.955-6.438-22.636-16.652-21.235-20.304 1.269-3.305 4.998-4.129 22.241-4.913 19.23-0.877 21.24-1.242 21.24-3.858 0-1.699-1.266-1.801-19.875-1.6-18.776 0.203-20.141 0.349-24.75 2.632-8.923 4.424-8.997 9.949-0.261 19.428 4.804 5.211 10.959 9.128 18.372 11.691 5.25 1.81 10.52 2.33 10.52 1.04z"/>
		<path id="path11" d="m223.36 78.212c3.482-2.739 3.324-5.169-0.548-8.427-3.715-3.126-8.168-2.879-11.067 0.613-5.6 6.752 4.41 13.487 11.62 7.814z" fill="#fff"/>
		<path id="path13" d="m265.26 68.847c2.997-2.441 6.208-6.041 7.138-8 1.088-2.29 2.389-3.562 3.645-3.562 3.934 0 1.213-5.583-6.466-13.262-4.228-4.227-5.219-4.738-9.174-4.738-2.439 0-5.282-0.529-6.317-1.177-1.576-0.983-2.431-0.72-5.236 1.615-5.78 4.82-10.84 11.582-10.84 14.495 0 3.254 9.385 14.641 14.272 17.317 4.81 2.633 7.03 2.175 12.99-2.688z"/>
		<path id="path15" fill="#fff" d="m249.91 62.312c-3.803-3.618-4.123-4.303-3.581-7.644 1.149-7.085 7.562-10.711 14.105-7.977 4.211 1.76 6.569 5.128 6.569 9.382 0 4.393-1.41 6.854-4.98 8.701-4.75 2.451-7.56 1.878-12.12-2.462z"/>
		<path id="path17" d="m259.8 59.085c0.66-0.66 1.2-2.146 1.2-3.3 0-2.874-1.867-4.5-5.165-4.5-4.987 0-6.095 6.142-1.446 8.02 2.97 1.199 4.03 1.155 5.41-0.22z"/>
		<path id="path19" fill="#fff" d="m201.78 69.204c0.163-0.849-0.668-2.415-1.848-3.48-1.852-1.674-3.532-1.919-12.312-1.796-10.73 0.15-17.62 1.998-17.62 4.722 0 2.086 0.399 2.137 16.739 2.115 12.48-0.015 14.78-0.254 15.04-1.561z"/>
		<path id="path21" fill="#FAFAFA" d="m183.42 56.696c6.212-0.563 15.562 0.492 20.229 2.283 1.743 0.669 3.504-3.241 2.772-6.156-0.453-1.805-1.644-2.784-4.274-3.515-5.346-1.484-19.912-1.225-25.445 0.454-5.092 1.545-10.7 5.016-10.7 6.622 0 1.624 4.315 2.67 7.384 1.79 1.6-0.457 6.12-1.122 10.04-1.478z"/>
		<path id="path23" d="m283.5 338.41c-9.131-2.418-15.983-8.992-18.384-17.642-1.485-5.349-1.401-8.159 0.427-14.313 2.922-9.842 11.534-16.609 22.561-17.734 8.648-0.881 14.021 0.721 19.57 5.835 6.438 5.934 8.455 10.445 8.545 19.108 0.115 11.044-4.746 19.802-12.906 23.251-3.95 1.66-15.78 2.56-19.81 1.49z"/>
		<path id="path25" fill="#fff" d="m300.08 322.71c7.035-6.366 3.285-19.422-5.58-19.422-9.928 0-16.646 9.26-12.434 17.134 2.5 4.67 13.79 6.11 18.01 2.29z"/>
		<path id="path27" d="m275.32 171.88c-6.204-2.813-8.635-9.879-5.882-17.089 2.31-6.047 6.583-9.51 11.732-9.51 8.197 0 14.236 4.884 15.367 12.429 0.801 5.34-2.059 11.574-6.164 13.445-4.38 2-11.5 2.34-15.06 0.72z"/>
		<path id="path29" d="m14.201 148.61c-4.891-1.73-10.813-7.286-12.834-12.04-0.752-1.77-1.367-6.22-1.367-9.89 0-7.538 1.854-11.531 7.266-15.645 6.762-5.141 9.52-6.011 16.629-5.251 11.97 1.279 18.567 6.977 20.51 17.709 1.532 8.467-5.984 22.042-14.078 25.424-4.179 1.75-10.658 1.62-16.126-0.31z"/>
		<path id="path31" fill="#fff" d="m28.187 136c3.902-3.216 5.094-7.044 3.671-11.794-1.452-4.848-3.604-6.843-8.18-7.585-7.806-1.27-11.678 2.56-11.678 11.53 0 4.723 0.248 5.229 3.731 7.596 4.563 3.1 8.891 3.19 12.456 0.25z"/>
		<path id="path33" d="m167.68 20.834c-9.085-3.24-10.008-12.535-1.798-18.114 5.79-3.935 12.407-2.699 17.031 3.18 4.117 5.234 1.939 11.187-5.294 14.472-4.87 2.211-5.02 2.218-9.94 0.462z"/>
	</g>
<metadata><rdf:RDF><cc:Work><dc:format>image/svg+xml</dc:format><dc:type rdf:resource="http://purl.org/dc/dcmitype/StillImage"/><cc:license rdf:resource="http://creativecommons.org/licenses/publicdomain/"/><dc:publisher><cc:Agent rdf:about="http://openclipart.org/"><dc:title>Openclipart</dc:title></cc:Agent></dc:publisher><dc:title>Ancient Mexico Motif (1)</dc:title><dc:date>2008-01-25T22:03:50</dc:date><dc:description>Henze, W. (1958). Ornament, Dekor und Zeichen. Dresden: Verlag der Kunst. Note: Veroeffentlicht unter der Lizenznummer 413-455/3/58</dc:description><dc:source>http://openclipart.org/detail/11760/ancient-mexico-motif-(1)-by-cibo00</dc:source><dc:creator><cc:Agent><dc:title>cibo00</dc:title></cc:Agent></dc:creator><dc:subject><rdf:Bag><rdf:li>art</rdf:li><rdf:li>clip art</rdf:li><rdf:li>clipart</rdf:li><rdf:li>externalsource</rdf:li><rdf:li>image</rdf:li><rdf:li>media</rdf:li><rdf:li>mexico</rdf:li><rdf:li>monkey</rdf:li><rdf:li>png</rdf:li><rdf:li>public domain</rdf:li><rdf:li>svg</rdf:li></rdf:Bag></dc:subject></cc:Work><cc:License rdf:about="http://creativecommons.org/licenses/publicdomain/"><cc:permits rdf:resource="http://creativecommons.org/ns#Reproduction"/><cc:permits rdf:resource="http://creativecommons.org/ns#Distribution"/><cc:permits rdf:resource="http://creativecommons.org/ns#DerivativeWorks"/></cc:License></rdf:RDF></metadata></svg>
