<?xml version="1.0"?>
<svg xmlns:rdf="http://www.w3.org/1999/02/22-rdf-syntax-ns#" xmlns="http://www.w3.org/2000/svg" xmlns:cc="http://web.resource.org/cc/" xmlns:dc="http://purl.org/dc/elements/1.1/" xmlns:svg="http://www.w3.org/2000/svg" id="svg2" viewBox="0 0 192 188" version="1.0">
  <defs id="defs5">
    <filter id="filter2997" y="-.1071" width="1.2004" x="-.10018" height="1.2142">
      <feGaussianBlur id="feGaussianBlur2999" stdDeviation="1.1558416"/>
    </filter>
    <filter id="filter3001" y="-.14995" width="1.2895" x="-.14473" height="1.2999">
      <feGaussianBlur id="feGaussianBlur3003" stdDeviation="1.1558416"/>
    </filter>
    <filter id="filter3005" y="-.10863" width="1.0995" x="-.049728" height="1.2173">
      <feGaussianBlur id="feGaussianBlur3007" stdDeviation="1.1558416"/>
    </filter>
    <filter id="filter3173" y="-.11666" width="1.1471" x="-.07354" height="1.2333">
      <feGaussianBlur id="feGaussianBlur3175" stdDeviation="1.3479202"/>
    </filter>
    <filter id="filter3177" y="-.15209" width="1.1705" x="-.085263" height="1.3042">
      <feGaussianBlur id="feGaussianBlur3179" stdDeviation="1.3479202"/>
    </filter>
    <filter id="filter3181" y="-.18933" width="1.1156" x="-.057801" height="1.3787">
      <feGaussianBlur id="feGaussianBlur3183" stdDeviation="1.3479202"/>
    </filter>
    <filter id="filter3185" y="-.087076" width="1.2612" x="-.13059" height="1.1742">
      <feGaussianBlur id="feGaussianBlur3187" stdDeviation="1.3479202"/>
    </filter>
    <filter id="filter3189" y="-.12393" width="1.1756" x="-.087822" height="1.2479">
      <feGaussianBlur id="feGaussianBlur3191" stdDeviation="1.3479202"/>
    </filter>
    <filter id="filter3829" y="-.32238" width="1.1985" x="-.099272" height="1.6448">
      <feGaussianBlur id="feGaussianBlur3831" stdDeviation="1.3871757"/>
    </filter>
    <filter id="filter3833">
      <feGaussianBlur id="feGaussianBlur3835" stdDeviation="1.3871757"/>
    </filter>
    <filter id="filter3837" y="-.22153" width="1.2004" x="-.10022" height="1.4431">
      <feGaussianBlur id="feGaussianBlur3839" stdDeviation="1.3871757"/>
    </filter>
    <filter id="filter3841" y="-.1051" width="1.1851" x="-.092567" height="1.2102">
      <feGaussianBlur id="feGaussianBlur3843" stdDeviation="1.3871757"/>
    </filter>
    <filter id="filter3845" y="-.10065" width="1.1386" x="-.0693" height="1.2013">
      <feGaussianBlur id="feGaussianBlur3847" stdDeviation="1.3871757"/>
    </filter>
    <filter id="filter3849">
      <feGaussianBlur id="feGaussianBlur3851" stdDeviation="1.3871757"/>
    </filter>
    <filter id="filter3853" y="-1.1061" width="3.2153" x="-1.1076" height="3.2121">
      <feGaussianBlur id="feGaussianBlur3855" stdDeviation="1.3871757"/>
    </filter>
    <filter id="filter3959" y="-.086694" width="1.5772" x="-.28859" height="1.1734">
      <feGaussianBlur id="feGaussianBlur3961" stdDeviation="1.0406206"/>
    </filter>
    <filter id="filter2967" y="-.24708" width="1.8063" x="-.40313" height="1.4942">
      <feGaussianBlur id="feGaussianBlur2969" stdDeviation="2.0770123"/>
    </filter>
  </defs>
  <g id="layer1">
    <path id="path2255" fill="#41aa54" d="m170.97 98.219c-5.96 0.001-13.06 2.181-15.66 5.001-1.15 1.25-2.42 4.21-2.81 6.59-0.59 3.63-0.37 4.71 1.41 6.6 1.44 1.53 2.35 2.02 6.28 2.09l-4.53 2.34c-1.79-1.44-2.72-2.14-3.19-2.12-0.41 0.01-0.52 0.53-0.66 1.47-0.2 1.4-1.23 2.44-2.81 2.81-0.09 0.02-0.14 0.04-0.22 0.06-0.71 0.06-1.38 0.04-1.87-0.15-1.19-0.48-5.4-4.55-9.03-8.16-0.09-0.36-0.17-0.72-0.22-1.09-0.31-2.12-1.27-4.94-2.13-6.25-1.34-2.05-2.38-2.41-7.09-2.41-5.15 0-5.44 0.12-4.47 1.94 0.57 1.07 1.48 2.22 2.03 2.56 1.73 1.07 1.08 4.32-1.19 5.91-1.2 0.84-1.98 1.76-1.72 2.03 0.27 0.26 3.84 0.99 7.94 1.62s8.15 1.53 8.97 2c0.43 0.25 0.8 0.45 1.12 0.6l3.22 2.09 7.85 4.16c-2.11-0.02-4.47 0.12-7.19 0.37-5.25 0.49-9.53 2.51-12.88 6.1-2.8 3-2.6 7.17 0.72 14.81 1.02 2.33 1.85 3.66 3.25 4.81l-2.28 2.38c-0.71-0.1-1.45-0.14-2.28-0.13-1.65 0.01-3.58 0.25-6.09 0.69-0.79 0.13-1.5 0.27-2.19 0.4l-2.03-1.03-3.66-19.72c0.09-0.56 0.17-1.13 0.28-1.78 0.98-5.67 0.41-12.91-1.15-14.47-0.04-0.03-0.11-0.05-0.19-0.06-0.57-0.05-2.21 0.54-3.97 1.44-3.61 1.85-3.64 1.96-4.06 9.16-0.39 6.62-0.23 7.44 1.91 9.43 1.28 1.2 2.69 3.31 3.12 4.69 0.93 2.97 2.02 5.62 3.06 7.59l1.88 5.97c-1.03 0.37-1.8 0.77-2.35 1.22l-6.56-1.75c-0.77-0.52-1.01-0.71-2-1.37-1.65-1.11-2.81-1.75-3.62-1.75l-1.13-0.75-0.94-5.41c0.52-2.01 1.06-4.01 1.63-5.72 2.68-8.01 3.8-16.1 2.41-17.5-0.09-0.09-0.32-0.14-0.63-0.15-0.93-0.05-2.74 0.2-4.66 0.68-2.546 0.64-5.898 0.94-7.465 0.63-2.352-0.47-3.062-0.16-4 1.9-1.692 3.72-1.486 4.65 2.813 12.82 1.046 1.98 2.051 4.28 2.906 6.53l-1.125 3.31c-0.522-1.12-1.231-1.25-2.625-1.25-1.494 0-5.077 0.68-7.938 1.53-2.364 0.7-3.905 1.39-5.437 2.63l-4.094-1.32c-0.098-1.34-1.025-2.52-2.813-3.62-1.829-1.13-4.628-2.39-6.218-2.78-1.888-0.47-3.25-1.68-3.938-3.5-1.201-3.19-3.096-3.92-10.156-3.88-5.567 0.04-11.672 1.91-14.438 4.41-1.704 1.54-1.95 1.47-3.843-0.94l-2.031-2.56-3.719 4.25c-2.044 2.35-4.78 6.68-6.094 9.59-2.75 6.11-4.72 18.04-3.844 23.28l0.594 3.6 9.187 1.03c11.174 1.24 19.851 0.67 25.188-1.66 3.508-1.53 6.355-3.51 8.781-6.15 1.103 0.36 2.206 0.72 3.219 1.09-1.767 2.97-3.808 5.82-5.188 7.16l-3.437 3.34 3.813 0.59c6.566 1.05 9.801 0.95 14.374-0.47 2.436-0.75 7.363-1.92 10.938-2.59 10.327-1.92 15.597-5.34 20.81-13.53 2.45-3.85 5.15-7.57 6-8.25 0.58-0.47 0.96-0.93 1.1-1.25l3.21 2.25c0.21 1.49 1.37 3.43 3.41 6.09 7.43 9.73 21.11 14.57 31.88 11.32 5.66-0.71 9.07-6.03 12.34-4.66 3.17 1.18 6.43 2.77 7.25 3.5 1.32 1.17 7.53 4.18 9.06 4.41 0.31 0.04 1.98-2.95 3.72-6.66 6.51-13.87 7.56-25.26 3.63-38.94-2.88-9.98-5.07-14.13-10.07-15.9l-0.59-4.03c0.91-0.28 1.71-0.64 2.44-1.07 3.87-2.26 9.81-9.68 9.81-12.28 0-2.15-6.61-4.721-14.56-5.655-0.79-0.093-1.62-0.156-2.47-0.156z"/>
    <g id="g3207" filter="url(#filter3849)" transform="translate(-228.38 -91.204)" fill="#60975f" fill-rule="evenodd">
      <path id="path3195" d="m280.69 236.23l-35.39 30.53c3.12-11.22 2.85-21.09 13.88-31.23 5.45-5.01 12.94-12.1 21.51 0.7z"/>
      <path id="path3197" d="m366.74 253.23c4.7 2.41 15.61 13.18 14.91 15.26-0.45 1.36-34.81-13.26-34.34-14.57 1.09-3.1 14.44-3.24 19.43-0.69z"/>
      <path id="path3199" d="m409.76 258.09c0.54-1.32 1.04-14.58-2.08-19.78-3.13-5.21-21.52-14.23-21.52-14.23l17.35 39.21c2.69-2.92 5.32-2.94 6.25-5.2z"/>
      <path id="path3201" d="m325.79 249.76c0.35-1.74-5.89-19.78-5.89-23.59 0-3.82 3.81-6.25 5.55-6.25h6.24l-5.9 29.84z"/>
      <path id="path3203" d="m410.45 195.63s-11.45-1.73-17.69-1.73c-6.25 0-11.11 7.98-11.11 7.98s11.45-4.51 15.27-4.51 13.88-1.39 13.53-1.74z"/>
      <path id="path3205" d="m354.24 207.78c1.39 0 10.41-0.7 10.41-0.7s0-9.02-3.12-9.71c-3.12-0.7-9.02 0-9.02 0 0.58 3.47 5.5 2.59 1.73 10.41z"/>
    </g>
    <path id="path2235" filter="url(#filter3853)" d="m171 131.62c0-0.21-0.79-0.99-1.75-1.75-1.59-1.24-1.62-1.21-0.38 0.38 1.31 1.67 2.13 2.2 2.13 1.37z"/>
    <path id="path2192" d="m108.97 87.75l-27.97-17.219-23.219 0.813c-0.054 1.029-0.142 2.542-0.187 3.312l-6.532-0.156 4.219 4.062c2.335 2.236 6.736 6.907 9.75 10.376 3.014 3.468 7.719 7.608 10.469 9.187 4.641 2.665 5.759 2.865 15.625 2.875 8.698 0.01 10.875-0.3 11.995-1.656 0.76-0.914 2.73-2.491 4.38-3.5l3-1.844h-2.78l1.25-6.25z" fill="#f84262"/>
    <path id="path2237" fill="#f82749" d="m132.44 2.4062c-1.77 0.064-7.87 1.2685-14.72 2.9688-7.83 1.9432-17.45 4.1031-21.408 4.781l-7.218 1.219-28.438 12.563c0.451-2.221-0.095-2.846-2.406-5.157l-3.062-3.031c-6.669 2.134-37.123 7.313-37.934 10.688 2.498 0.9 5.65 3.306 5.028 4.312-0.365 0.591-1.969 1.183-3.75 1.563s-4.479 1.522-6.251 2.249l-3.2185 1.313 2.0935 4.781c1.847 4.176 2.031 5.959 1.5 14.313-0.333 5.248-1.419 12.504-2.437 16.125l-1.844 6.562 3.063 2c1.688 1.102 4.187 2.31 5.562 2.656 1.375 0.347 6.775 3.1 12 6.126 0.139 0.08 0.268 0.139 0.406 0.218l0.188 2.782c-0.373-0.068-0.721-0.093-1.032-0.063-0.162 0.016-0.298 0.049-0.437 0.094-1.04 0.33-4.444 4.567-7.531 9.441-5.154 8.13-10.291 13.8-15.188 16.75-1.7573 1.05-1.5661 1.29 2.094 2.78 17.332 7.03 19.506 8.46 23.562 15.4l3.407 5.82 3.437-2.04c2.535-1.49 5.705-2.13 12.032-2.4 6.666-0.29 10.606 0.16 17.781 2l9.25 2.37 5.5-7.28c3.035-4.01 5.531-7.74 5.531-8.31 0-0.48-0.434-0.94-1.219-1.41l2.938-1.84c6.738 2.03 9.038 1.67 17.221-1.22 6.7-2.37 17.06-8.44 17.06-10 0-0.75-1.17-2.77-2.59-4.47-0.82-0.97-1.43-1.61-2.1-2.06l4.57-2.28c10.26 0.53 11.44 0.89 13.15 3.06 1.11 1.41 2.52 4.51 3.13 6.91 1.13 4.49 4.71 8.31 7.81 8.31 1.47 0 1.81-1.52 2.37-10.66 2-11.548 2.85-12.542 3.85-13.34 0.37 0.005 4.42-1.382 9-3.062 4.57-1.681 8.83-3.594 9.47-4.25 0.63-0.657 2.09-4.997 3.25-9.657 1.16-4.659 4.8-14.044 8.09-20.843l5.97-12.344-3.94 0.656c-5.08 0.859-6.42 0.04-4.62-2.812 0.76-1.209 1.68-3.21 2.06-4.469 0.41-1.376 0.49-1.935-0.25-1.969-0.11-0.005-0.24 0.016-0.38 0.031-0.37 0.04-0.85 0.16-1.5 0.313-1.55 0.366-5.09 2.021-7.84 3.687-3.99 2.42-6.68 3.171-13.31 3.781-4.43 0.408-7.33 0.907-9.53 1.938l-3.07-3.969c0.79-1.881 1.33-3.435 1.5-4.531 0.17-1.1-0.83-3.792-2.25-6-4.33-6.77-7.58-13.784-10.34-22.312-1.45-4.4869-3.07-8.4276-3.59-8.7505-0.07-0.0404-0.22-0.0404-0.47-0.0313z"/>
    <path id="path2223" d="m88.844 35.625c-0.047 0.004-0.091 0.01-0.125 0.031-0.552 0.341-5.196 0.559-10.344 0.469-10.221-0.179-10.088-0.271-8.219 5.969 0.062 0.206 0.126 0.374 0.188 0.562-2.235 1.533-4.825 3.199-6.813 4.125-1.64-0.488-3.347-0.781-4.875-0.781h-4.562l1.437 4.062c0.789 2.237 1.734 6.951 2.094 10.469 0.198 1.931 0.352 3.226 0.531 4.125-0.17 2.675-0.264 4.61-0.375 6.688l23.219-0.813 27.97 17.219 1.81-9.156c5.13 1.827 9.66 3.318 10.47 3.344 1.4 0.044 1.75-0.794 1.75-4.25 0-2.369-0.9-9.201-2-15.188s-2-13.286-2-16.219v-5.343l-0.84 0.437 0.06-0.281-24.158-1.938c-2.083-1.982-4.2-3.427-5.062-3.531-0.062-0.007-0.11-0.004-0.156 0z" fill="#fdc972"/>
    <path id="path2217" d="m68.875 13.531c-1.922 0.104-2.717 2.675-5 9.688-1.841 5.655-3.632 10.506-3.969 10.781-2.051 1.673-1.118 3.683 3.032 6.625 2.511 1.781 4.72 3.279 4.906 3.313 0.186 0.033 0.036-1.626-0.313-3.688-0.274-1.621-0.234-2.957 0.25-4.656 7.11-0.509 18.987-0.953 25.563-1.188 0.82 2.571 2.564 4.401 5.531 6l0.5 4.125c-2.594 0.161-6.064 0.141-9.375-0.062-5.225-0.32-9.99-0.221-10.594 0.219-0.604 0.439-3.474 4.187-6.375 8.312-2.9 4.125-6.432 8.738-7.843 10.25l-2.563 2.75h1.031c-0.15 0.446-0.25 0.933-0.25 1.438 0 0.362 0.046 0.696 0.125 1.031-9.875 0.484-16.648-0.858-20.531-4.125l-2.938-2.469-0.624 2.469c-0.34 1.352-0.465 3.519-0.282 4.812 0.316 2.234 0.82 2.376 9.844 2.906 18.569 1.092 26.415 0.962 28.344-0.5 1.753-1.328 1.732-1.463-0.438-2.624-1.089-0.583-3.096-0.854-6.312-0.813 0.035-0.227 0.094-0.449 0.094-0.687 0-0.562-0.129-1.107-0.313-1.594 0.002-0.001-0.002-0.031 0-0.032 1.68-0.294 2.402-1.059 3.625-3.062 1.963-3.215 3.264-6.695 4.438-12 0.818-3.699 3.794-4.258 13.656-2.656 3.874 0.629 6.294 0.902 8.026 0.656l0.94 2.469c-1.271 1.325-2.665 2.8-4.279 4.437-10.677 10.837-11.772 12.262-10.125 13.219 2.406 1.398 2.11 1.44 5.906-0.906 3.147-1.945 8.268-8.775 11.818-15.719 2.29-4.487 7.37-10.082 10.71-11.812 1.54-0.797 4.86-1.438 7.35-1.438 4.42 0 4.49-0.044 3.56-2.5-2.02-5.314-5.23-8.5-8.56-8.5-1.57 0-2.39 0.122-3 0.875l-6.19-2.844c-0.26-0.627-0.53-1.246-0.84-1.875-3.71-7.431-7.52-9.171-19.629-9.062l-9.281 0.062 4.531 1.125-8.031-0.312c-0.348-0.137-0.652-0.262-0.875-0.375-2.543-1.293-4.097-2.125-5.25-2.063zm-17.687 19.813c-1.017 0.012-2.304 1.329-4.157 4.25-1.67 2.633-3.031 5.306-3.031 5.937 0 0.797 3.16 1.128 10.344 1.063l10.375-0.094-3.063-2.25c-1.677-1.238-3.682-2.25-4.468-2.25-1.057 0-1.287-0.785-0.844-3 0.497-2.488 0.289-3-1.282-3-1.041 0-2.587-0.268-3.437-0.594-0.135-0.051-0.292-0.064-0.437-0.062zm33.781 36.968c-0.525 0.202 0.571 1.607 3.843 5.188 5.313 5.813 9.188 12.12 9.188 14.969 0 1.88 5.2 2.013 16.69 0.469 9.31-1.253 11.31-1.788 11.31-3 0-1.358-6.29-4.298-18.03-8.469-15.817-5.619-16.623-5.944-18.095-7.125-0.751-0.603-2.481-1.456-3.844-1.875-0.512-0.158-0.887-0.224-1.062-0.157z" fill="#f84262"/>
    <path id="path2885" filter="url(#filter3177)" fill-rule="evenodd" fill="#9e1029" d="m79.223 135.64c-0.803-0.19-1.788-0.61-2.189-0.92s-1.879-0.81-3.283-1.1c-1.405-0.29-2.882-0.78-3.284-1.09-0.401-0.3-2.371-0.78-4.378-1.07-2.006-0.29-4.633-0.93-5.837-1.44-1.203-0.5-3.666-1.41-5.472-2.01-3.197-1.06-5.014-3.51-2.607-3.51 0.631 0 1.148-0.26 1.148-0.58s1.304-1.39 2.899-2.38c1.594-0.98 2.908-2.03 2.918-2.33 0.011-0.3 0.496-0.55 1.078-0.55s1.321-0.41 1.642-0.91c0.95-1.49 5.326-3.68 5.326-2.68 0 1.14 2.219 2.81 3.77 2.84 0.669 0.01 1.326 0.35 1.46 0.76 0.135 0.4 3.199 1.09 6.81 1.53s6.73 1.04 6.93 1.33c0.201 0.29 0.94 0.73 1.642 0.99 1.868 0.69 1.557 2.77-0.79 5.27-1.133 1.21-2.981 3.59-4.107 5.29-1.125 1.7-2.084 3.05-2.131 3.01-0.047-0.05-0.743-0.25-1.545-0.45z"/>
    <path id="path2889" filter="url(#filter3185)" fill-rule="evenodd" fill="#c72b3e" d="m52.394 83.01c-0.242-0.242-2.908-0.717-5.924-1.055-8.067-0.905-11.731-3.681-12.47-9.449-0.231-1.806-0.905-4.761-1.498-6.567-1.39-4.236-1.379-9.072 0.024-10.475 0.602-0.602 1.095-1.365 1.095-1.694 0-0.661 4.519-4.487 6.885-5.829 1.098-0.623 1.762-0.636 2.471-0.047 0.718 0.596 1.125 0.554 1.566-0.16 0.328-0.531 2.204-1.119 4.17-1.308 3.308-0.318 3.638-0.2 4.455 1.593 1.122 2.463 1.111 2.598-0.222 2.598-0.607 0-1.674 0.301-2.371 0.669-0.697 0.367-2.334 1.064-3.638 1.547-1.305 0.484-2.372 1.168-2.372 1.52 0 0.353-0.435 0.642-0.967 0.642-1.174 0-4.14 3.039-4.14 4.242 0 0.476-0.271 0.865-0.601 0.865s-0.971 1.991-1.424 4.424c-1.415 7.61 0.206 9.459 9.207 10.505 1.745 0.202 3.458 1.312 6.019 3.901 1.969 1.99 3.58 3.82 3.58 4.068 0 0.58-3.266 0.589-3.845 0.01z"/>
    <path id="path2891" filter="url(#filter3189)" fill-rule="evenodd" fill="#c72b3e" d="m127.26 38.598c-0.46-1.111-1.04-2.677-1.27-3.479-0.24-0.803-1.7-2.891-3.25-4.64-2.38-2.672-3.37-3.24-6.2-3.559-2.41-0.272-3.88-0.037-5.21 0.834-1.83 1.199-1.86 1.186-2.3-1.001-0.24-1.218-0.69-2.214-0.99-2.214s-0.96-0.985-1.46-2.189c-0.49-1.204-1.15-2.189-1.44-2.189-0.3 0-1.34-0.792-2.31-1.761s-2.898-2.071-4.292-2.449l-2.534-0.688 4.086-0.54c2.25-0.297 6.85-0.59 10.22-0.652 5.09-0.093 6.71 0.176 9.59 1.595 1.91 0.939 3.47 1.984 3.47 2.322 0 0.339 0.69 0.836 1.54 1.106 2.03 0.644 7.94 6.843 7.93 8.312-0.01 1.231-1.76 6.554-2.83 8.634-0.36 0.697-0.94 2.012-1.28 2.923-0.62 1.651-0.62 1.65-1.47-0.365z"/>
    <path id="path2929" filter="url(#filter3181)" fill-rule="evenodd" fill="#c72b3e" d="m69.628 106.89c-0.547-0.66-2.066-1.17-3.462-1.17-3.792 0-13.879-3.49-16.086-5.57-0.482-0.452-2.452-1.045-4.378-1.315-1.926-0.271-4.577-0.832-5.891-1.246-2.345-0.739-3.62-0.575-12.933 1.658-1.605 0.385-3.657 1.073-4.559 1.523-2.086 1.04-2.91 0.27-1.366-1.271 0.649-0.649 1.375-1.954 1.612-2.901 0.238-0.946 0.895-1.897 1.461-2.115 0.565-0.217 1.028-0.842 1.028-1.388 0-1.449 3.254-2.957 5.282-2.448 0.96 0.241 2.505 1.096 3.433 1.901 2.733 2.371 6.403 2.695 9.848 0.871 3.522-1.866 7.349-2.024 9.001-0.372 0.995 0.995 2.302 1.126 7.88 0.793l6.688-0.399 2.601 2.829c1.431 1.556 3.443 3.041 4.471 3.299 1.029 0.258 1.868 0.681 1.864 0.941-0.003 0.25-1.099 1.62-2.434 3.03-1.336 1.4-2.576 3-2.757 3.54-0.26 0.78-0.529 0.74-1.303-0.19z"/>
    <path id="path2931" filter="url(#filter2997)" fill-rule="evenodd" fill="#fdc972" d="m124.53 83.926c-0.43-1.134 2.03-4.567 5.71-7.948 0.87-0.803 2.72-3.093 4.11-5.09 1.38-1.997 2.77-3.967 3.08-4.378s1.32-2.224 2.25-4.03c1.29-2.523 2.09-3.284 3.44-3.284 1.63 0 1.79 0.318 2 4.013 0.23 4.164 1.82 6.808 4.63 7.698 0.74 0.235 1.68 1.064 2.1 1.842 0.61 1.138 0.4 1.77-1.06 3.234-1 1.001-2.16 1.819-2.58 1.819s-0.77 0.827-0.77 1.838c0 1.753-0.17 1.829-3.83 1.653-2.1-0.101-5.29 0.097-7.07 0.439-2.71 0.098-5.19 0.609-10.2 3.366-0.75 0-1.56-0.527-1.81-1.172z"/>
    <path id="path2935" filter="url(#filter3001)" fill-rule="evenodd" fill="#ffff80" d="m139.07 65.154c-1.99 2.935-3.79 6.678-6.44 9.344-1.39 3.478-5.89 6.472-7 9.156 4.92-2.194 10.99-4.688 16.06-3.843 1-2.175 5.55-4.661 1.38-6.032-4.35-0.912-3.7-5.978-4-8.625z"/>
    <path id="path2887" filter="url(#filter3173)" fill-rule="evenodd" fill="#f84262" d="m38.911 132.39c-0.903-0.45-1.642-1.1-1.642-1.44s-0.465-0.61-1.034-0.61c-0.568 0-1.143-0.27-1.277-0.59-0.351-0.86-6.929-5.25-7.853-5.25-0.429 0-0.781-0.33-0.781-0.73s-0.334-0.73-0.744-0.73c-0.409 0-3.576-1.36-7.037-3.02l-6.293-3.02 1.747-1.34c0.961-0.74 1.972-1.35 2.247-1.36 0.843-0.03 7.892-4.58 7.892-5.1 0-0.27 1.369-1.25 3.042-2.19 2.458-1.39 4.176-1.73 8.938-1.77 5.835-0.06 7.295 0.34 11.733 3.16 1.204 0.77 2.719 1.42 3.367 1.45 1.935 0.09 5.023 2.96 5.023 4.68 0 0.87-0.738 2.05-1.641 2.62-2.824 1.76-7.844 6.17-7.844 6.89 0 0.38 0.854 1.81 1.898 3.17 1.044 1.37 1.782 2.55 1.642 2.63-5.886 3.09-8.939 3.77-11.383 2.55z"/>
    <path id="path2933" filter="url(#filter2967)" fill-rule="evenodd" fill="#ffff8f" d="m116.8 77.893c0-0.351-0.9-0.823-2.01-1.05-2.94-0.604-8.21-4.742-8.21-6.449 0-0.795 1.06-2.7 2.34-4.233 1.29-1.533 2.71-3.871 3.16-5.196 1.05-3.137 2.08-3.394 4.13-1.038 2.02 2.31 2.68 5.426 2.74 12.95 0.03 4.559-0.17 5.655-1.06 5.655-0.6 0-1.09-0.288-1.09-0.639z"/>
    <path id="path2187" filter="url(#filter3005)" fill-rule="evenodd" fill="#fdc972" d="m56.287 78.93l25.432 1.084 5.837-4.378c4.363 4.88 8.708 9.401 9.131 18.221l15.383 0.041-9.92 7.272-23.62-0.1c-8.802-7.506-16.84-14.635-22.243-22.14z"/>
    <path id="path3215" filter="url(#filter3845)" fill-rule="evenodd" fill="#80ca7f" d="m58.662 146.49s-14.042 12.74-20.573 15.68-18.287 14.37-18.287 14.37c0.006 0.55 16.086 2.13 20.899 2.93 7.25 1.22 28.149-16.43 27.104-22.2-1.585-8.76-7.929-11.16-9.143-10.78z"/>
    <path id="path3217" filter="url(#filter3841)" fill-rule="evenodd" fill="#80ca7f" d="m94.908 164.78c0 6.2 1.307 12.08-0.979 13.06s-20.246 3.27-22.206 3.59c-1.959 0.33-12.408 4.25-12.408 4.25s12.082-17.96 15.674-19.92 15.348-11.76 15.348-11.76l4.571 10.78z"/>
    <path id="path3219" filter="url(#filter3837)" fill-rule="evenodd" fill="#80ca7f" d="m116.46 164.13s13.39 10.77 17.96 11.43c4.57 0.65 15.02 2.93 15.02 2.93 1.75-0.35-6.46-8.75-12.73-11.1-5.03-1.88-19.6-5.39-20.25-3.26z"/>
    <path id="path3221" filter="url(#filter3833)" fill-rule="evenodd" fill="#80ca7f" d="m135.73 144.86c2.28 8.82 35.26 32 37.22 30.04s-14.47-40.77-19.59-41.8c-10.5-2.11-20.31 10.1-17.63 11.76z"/>
    <path id="path3223" filter="url(#filter3829)" fill-rule="evenodd" fill="#80ca7f" d="m183.4 107.96s-12.41-3.92-18.94-1.63c-6.53 2.28-14.36 9.47-14.36 9.47s14.34 0.48 19.26-0.33c8.11-1.33 15.7-7.5 14.04-7.51z"/>
    <path id="path3857" filter="url(#filter3959)" fill-rule="evenodd" fill="#80ca7f" d="m113.38 123.17c3.66-1.53 3.75 2.97 3.13 8.14-0.63 5.17 1.88 20.05 1.25 20.36s-6.73-13.78-7.83-14.56c-1.1-0.79-1.6-11.83 3.45-13.94z"/>
    <path id="path2257" d="m132.19 0.53125c-2.11 0.08439-6.03 0.93525-13.85 2.8126-8.16 1.9613-18.588 4.353-23.184 5.3124-4.595 0.9595-8.599 2.3128-8.875 3.0318-0.609 1.587-12.802 1.813-16.75 0.312-2.452-0.932-2.711-0.726-4.562 3.594l-1.969 4.594-3.531-3.094c-1.941-1.704-3.914-3.094-4.375-3.094-0.462 0-8.887 2.028-18.719 4.5s-18.663 4.497-19.625 4.5c-2.609 0.008-2.108 2.58 0.969 5 3.124 2.457 2.317 3.425-3.625 4.375-2.001 0.32-4.5396 1.234-5.6252 2.031-1.9643 1.443-1.959 1.474 0.0312 4.782 2.673 4.443 2.708 19.099 0.0625 29.937-1.0241 4.195-1.5867 8.341-1.25 9.219 0.3367 0.877 4.9685 3.659 10.312 6.156l9.72 4.531-2.594 2.719c-1.422 1.505-4.152 5.475-6.094 8.81-3.658 6.29-10.796 13.63-15.187 15.63-4.3287 1.97-3.484 2.65 12.375 9.93 8.509 3.92 14.156 8.34 14.156 11.07 0 0.56-1.837 3.09-4.094 5.65-2.256 2.56-5.008 6.41-6.094 8.54-2.817 5.5-4.971 16.95-4.656 24.68l0.282 6.63 4.531-0.07c2.495-0.03 8.377 0.32 13.062 0.79 11.243 1.11 18.483-0.4 24.594-5.07l4.563-3.46-1.844 3.15c-1.015 1.75-3.329 4.22-5.156 5.47l-3.344 2.28 2.844 1.06c6.321 2.38 24.748 0.18 38.187-4.56 5.408-1.91 11.755-8.11 15.375-15.03 1.51-2.89 3.09-5.25 3.5-5.25s1.85 2.07 3.19 4.59c1.34 2.53 3.83 5.65 5.53 6.94 4.49 3.43 15.94 8.59 20.41 9.19 5.1 0.68 14.13-2.04 17.03-5.13l2.31-2.43 9.37 5c5.16 2.75 9.77 4.74 10.25 4.43 1.73-1.07 7.13-13.69 8.63-20.15 2.32-10 1.99-19.56-1.03-29.06-2.66-8.37-7.34-15.38-10.22-15.38-0.89 0 0.46-1.33 3-2.94 4.62-2.93 9.01-9.02 10.31-14.31 0.6-2.44 0.4-2.75-1.81-2.75-1.37 0-4.12-0.692-6.13-1.531-7.06-2.952-21.08-1.757-27.34 2.311-1.94 1.26-2.25 1.27-2.25 0.03 0-0.865 2.27-2.152 5.75-3.248 3.16-0.995 8.03-2.832 10.81-4.062 5.05-2.231 5.07-2.255 7.38-10.125 3.12-10.652 8.51-23.945 11.59-28.594 1.39-2.097 2.82-5.225 3.16-6.937l0.62-3.125-4.53 0.687-4.53 0.688 1.5-4.594c0.83-2.518 1.26-4.803 0.97-5.094-0.94-0.937-9.07 1.688-14.22 4.594-3.14 1.771-7.23 3.06-11 3.469-3.3 0.358-7.18 0.886-8.62 1.156l-2.63 0.469 1.44-4.406 1.47-4.407-5-7.656c-3.14-4.8-6.18-11.257-8.19-17.375-1.76-5.3603-3.8-10.373-4.5-11.125-0.41-0.43194-1.02-0.64438-2.28-0.59375zm0.25 1.875c0.25-0.0091 0.4-0.0091 0.47 0.0313 0.52 0.3229 2.14 4.2636 3.59 8.7505 2.76 8.528 6.01 15.542 10.34 22.312 1.42 2.208 2.42 4.9 2.25 6-0.88 5.652-11.13 23.817-18.78 33.25-1.89 2.338-3.74 4.25-4.12 4.25s-1.78-7.312-3.07-16.25c-1.28-8.938-2.52-17.038-2.78-18-0.39-1.479 0.24-1.75 4.1-1.75 3.97 0 4.56-0.268 4.56-2.094 0-3.26-2.93-8.664-6.19-11.406-2.99-2.515-8.16-3.353-9.31-1.5-1.07 1.725-2.21 1.096-3.44-1.875-2.19-5.289-7.5-9.332-14.498-11.094l-6.468-1.656 7.218-1.219c3.958-0.6779 13.578-2.8378 21.408-4.781 6.85-1.7003 12.95-2.9048 14.72-2.9688zm-63.565 11.125c1.153-0.062 2.707 0.77 5.25 2.063 1.441 0.732 5.763 2.028 9.625 2.906 13.28 3.021 19.25 8.905 19.25 18.969 0 5.061-0.04 5.076-3.812 3.125-4.196-2.17-6.023-4.761-6.376-9.032-0.275-3.339-0.982-4.381-4.812-7.156-5.343-3.871-7.373-4.153-9.406-1.25-1.275 1.821-1.74 1.973-3.063 0.875-1.879-1.559-1.467-2.027-5.406 5.969-2.573 5.222-3.103 7.237-2.594 10.25 0.349 2.062 0.499 3.721 0.313 3.688-0.186-0.034-2.395-1.532-4.906-3.313-4.15-2.942-5.083-4.952-3.032-6.625 0.337-0.275 2.128-5.126 3.969-10.781 2.283-7.013 3.078-9.584 5-9.688zm18.906 1.563c12.109-0.109 15.919 1.631 19.629 9.062 1.71 3.438 2.59 6.866 2.59 10 0 3.757-0.41 4.994-2 5.844-1.57 0.843-2.15 0.762-2.59-0.406-0.32-0.823-0.32-1.929 0-2.438 1.08-1.761-2.37-10.739-5.13-13.344-3.196-3.016-8.451-5.36-16.28-7.281l-5.5-1.375 9.281-0.062zm-32.593 0.656l3.062 3.031c3.003 3.003 3.019 3.125 1.75 7.657-1.528 5.456-2.19 5.986-7.25 5.687-4.429-0.261-6.222 1.408-9.875 9.156-2.538 5.385-1.738 7.78 1.937 5.813 2.97-1.59 6.893-1.327 7.594 0.5 1.033 2.69 0.697 3.238-2.344 3.906-1.618 0.355-4.755 1.959-6.968 3.562-3.223 2.335-4.361 4.013-5.656 8.469-1.478 5.084-1.48 5.759-0.032 7.969 1.17 1.785 2.858 2.596 6.375 3.062 4.206 0.558 5.676 1.503 12.563 8.063 4.293 4.089 7.626 7.987 7.406 8.656-0.601 1.83-4.611 1.97-10.75 0.375-4.801-1.247-5.943-1.227-9 0.063-1.925 0.812-3.95 1.636-4.5 1.843-0.55 0.208-5.275-2.099-10.5-5.124-5.225-3.026-10.625-5.779-12-6.126-1.375-0.346-3.874-1.554-5.562-2.656l-3.063-2 1.844-6.562c1.018-3.621 2.104-10.877 2.437-16.125 0.531-8.354 0.347-10.137-1.5-14.313l-2.0935-4.781 3.2185-1.313c1.772-0.727 4.688-1.651 6.469-2.031s3.541-1.159 3.906-1.75c0.622-1.006-1.564-3.194-4.062-4.093-2.218-0.799 0.293-1.685 18.281-6.282l18.313-4.656zm26.718 7.312c0.421-0.043 0.875 0.324 1.656 1.094 0.924 0.91 1.373 2.147 1 2.75-0.758 1.228-1.29 1.259-3.843 0.25-1.589-0.628-1.623-0.919-0.313-2.687 0.682-0.921 1.08-1.363 1.5-1.407zm-7.437 2.938c0.258 0 2.29 0.957 4.531 2.125 3.893 2.029 3.998 2.207 2.375 4-2.235 2.47-3.911 2.372-5.813-0.344-1.45-2.07-2.154-5.781-1.093-5.781zm13.437 0.938c0.209-0.022 0.434 0.089 0.688 0.343 0.332 0.333 0.419 1.149 0.187 1.844-0.338 1.016-0.557 1.019-1.187 0-0.626-1.012-0.313-2.123 0.312-2.187zm29.534 1.062c3.33 0 6.54 3.186 8.56 8.5 0.93 2.456 0.86 2.5-3.56 2.5-2.49 0-5.81 0.641-7.35 1.438-3.34 1.73-8.42 7.325-10.71 11.812-3.55 6.944-8.671 13.774-11.818 15.719-3.796 2.346-3.5 2.304-5.906 0.906-1.647-0.957-0.552-2.382 10.125-13.219 12.389-12.576 14.019-14.91 16.189-22.906 1.19-4.402 1.52-4.75 4.47-4.75zm-26.628 1.062c0.141 0.028 0.181 0.397 0.188 1.126 0.008 0.93-0.45 1.972-1 2.312-1.266 0.782-1.266-0.542 0-2.5 0.418-0.646 0.672-0.965 0.812-0.938zm-18.562 1.344c0.047-0.008 0.079-0.009 0.125 0 0.222 0.046 0.456 0.304 0.719 0.719 0.482 0.762 0.898 1.713 0.906 2.125s-0.912 0.75-2.031 0.75c-1.768 0-1.899-0.27-0.907-2.125 0.5-0.933 0.861-1.414 1.188-1.469zm13.812 0.844c0.824-0.121 1.202 0.502 0.469 1.688-0.362 0.586-1.402 1.062-2.312 1.062-1.527 0-1.528-0.129 0.031-1.688 0.653-0.653 1.319-0.989 1.812-1.062zm-34.874 2.094c0.145-0.002 0.302 0.011 0.437 0.062 0.85 0.326 2.396 0.594 3.437 0.594 1.571 0 1.779 0.512 1.282 3-0.443 2.215-0.213 3 0.844 3 0.786 0 2.791 1.012 4.468 2.25l3.063 2.25-10.375 0.094c-7.184 0.065-10.344-0.266-10.344-1.063 0-0.631 1.361-3.304 3.031-5.937 1.853-2.921 3.14-4.238 4.157-4.25zm37.656 2.281c0.046-0.004 0.094-0.007 0.156 0 0.862 0.104 2.979 1.549 5.062 3.531l4.313 4.125-8.969-0.687c-8.742-0.684-9.001-0.65-11.344 1.844-1.321 1.406-2.683 2.501-3 2.437-3.032-0.611-3.917-1.481-4.906-4.781-1.869-6.24-2.002-6.148 8.219-5.969 5.148 0.09 9.792-0.128 10.344-0.469 0.034-0.021 0.078-0.027 0.125-0.031zm94.376 2.625c0.74 0.034 0.66 0.593 0.25 1.969-0.38 1.259-1.3 3.26-2.06 4.469-1.8 2.852-0.46 3.671 4.62 2.812l3.94-0.656-5.97 12.344c-3.29 6.799-6.93 16.184-8.09 20.843-1.16 4.66-2.62 9-3.25 9.657-0.64 0.656-4.9 2.569-9.47 4.25-4.58 1.68-8.63 3.067-9 3.062-0.38-0.005-0.82-2.813-0.97-6.219-0.51-11.746-3.89-13.491-17.53-9.031-8.81 2.878-9.23 2.921-10.1 1.125-0.72-1.503 0.1-2.9 4.1-7.125 4.92-5.204 9.49-11.734 14.72-21 3.63-6.446 6.04-7.791 15.78-8.688 6.63-0.61 9.32-1.361 13.31-3.781 2.75-1.666 6.29-3.321 7.84-3.687 0.65-0.153 1.13-0.273 1.5-0.313 0.14-0.015 0.27-0.036 0.38-0.031zm-64.22 2.688v5.343c0 2.933 0.9 10.232 2 16.219s2 12.819 2 15.188c0 3.456-0.35 4.294-1.75 4.25-1.88-0.06-23.447-7.893-27.094-9.844-2.195-1.175-2.189-1.192 1-3.875 1.757-1.479 5.354-6.086 7.964-10.219 6.23-9.826 9.51-13.754 13-15.562l2.88-1.5zm-13.75 2.531c0.69-0.044 0.37 0.465-0.5 1.781-2.59 3.899-4.08 4.236-12.656 2.844-9.862-1.602-12.838-1.043-13.656 2.656-1.174 5.305-2.475 8.785-4.438 12-1.785 2.925-2.457 3.25-6.688 3.25h-4.687l2.563-2.75c1.411-1.512 4.943-6.125 7.843-10.25 2.901-4.125 5.771-7.873 6.375-8.312 0.604-0.44 5.369-0.539 10.594-0.219 5.275 0.323 10.99 0.143 12.84-0.407 1.23-0.363 2-0.567 2.41-0.593zm-51.156 2.531h4.562c5.174 0 12.345 3.45 12.344 5.938 0 0.861-2.006 4.113-4.469 7.25-2.462 3.136-5.336 6.162-6.375 6.718-1.734 0.928-1.929 0.5-2.531-5.375-0.36-3.518-1.305-8.232-2.094-10.469l-1.437-4.062zm30.281 3.062c1.797-0.041 4.326 0.322 7.937 1l6.813 1.282-8.281 8.312c-4.557 4.581-8.976 8.332-9.813 8.313-0.837-0.02-2.509-0.578-3.719-1.25l-2.218-1.219 2.031-4.5c1.108-2.471 2.32-6.075 2.719-8 0.555-2.681 1.536-3.869 4.531-3.938zm-31.937 3.938c1.659-0.068 2.439 1.012 2.687 3.25 0.198 1.788 0.235 4.712 0.063 6.5-0.372 3.85-2.647 4.268-8.188 1.5-5.219-2.607-5.278-6.153-0.156-9.031 2.498-1.404 4.303-2.166 5.594-2.219zm-12.376 8.875l2.938 2.469c4.133 3.478 11.494 4.8 22.438 4.031 6.429-0.452 9.884-0.285 11.468 0.563 2.17 1.161 2.191 1.296 0.438 2.624-1.929 1.462-9.775 1.592-28.344 0.5-9.024-0.53-9.528-0.672-9.844-2.906-0.183-1.293-0.058-3.46 0.282-4.812l0.624-2.469zm44.907 8.437c0.175-0.067 0.55-0.001 1.062 0.157 1.363 0.419 3.093 1.272 3.844 1.875 1.472 1.181 2.278 1.506 18.095 7.125 11.74 4.171 18.03 7.111 18.03 8.469 0 1.212-2 1.747-11.31 3-11.49 1.544-16.69 1.411-16.69-0.469 0-2.849-3.875-9.156-9.188-14.969-3.272-3.581-4.368-4.986-3.843-5.188zm-4.438 1.844c1.69-0.041 3.342 1.209 6.094 4.094 4.857 5.092 7.91 10.087 8.844 14.5l0.687 3.25h14.344l-3 1.844c-1.65 1.009-3.62 2.586-4.38 3.5-1.12 1.356-3.297 1.666-11.995 1.656-9.866-0.01-10.984-0.21-15.625-2.875-2.75-1.579-7.455-5.719-10.469-9.187-3.014-3.469-7.415-8.14-9.75-10.376l-4.219-4.062 11.969 0.312c9.591 0.248 12.405-0.001 14.188-1.25 1.276-0.894 2.298-1.381 3.312-1.406zm65.969 8.844c0.88 0 2.27 1.561 3.06 3.469 1.6 3.818 1.77 9.808 0.78 25.871-0.56 9.14-0.9 10.66-2.37 10.66-3.1 0-6.68-3.82-7.81-8.31-0.61-2.4-2.02-5.5-3.13-6.91-1.96-2.49-2.45-2.6-17.72-3.31l-15.72-0.72 2.47-2c3.99-3.229 13.55-7.682 18.97-8.844 4.21-0.902 4.95-1.389 4.47-2.906-0.49-1.534 0.67-2.227 7.41-4.406 4.39-1.424 8.71-2.594 9.59-2.594zm-117.94 10.375c1.14-0.111 2.8 0.467 4.25 1.5 4.288 3.053 7.619 3.543 10.594 1.594 1.92-1.258 3.556-1.508 6.344-0.969 2.066 0.399 6.723 0.79 10.344 0.875 5.57 0.131 7.057 0.583 9.781 2.875 1.771 1.49 3.973 3.12 4.875 3.63 1.443 0.8 1.286 1.31-1.344 4.31-4.514 5.14-7.671 10.67-7.031 12.34 0.709 1.85 4.467 3.32 11.625 4.56 6.557 1.14 10 2.51 10 3.91 0 0.57-2.496 4.3-5.531 8.31l-5.5 7.28-9.25-2.37c-7.175-1.84-11.115-2.29-17.781-2-6.327 0.27-9.497 0.91-12.032 2.4l-3.437 2.04-3.407-5.82c-4.056-6.94-6.23-8.37-23.562-15.4-3.6601-1.49-3.8513-1.73-2.0938-2.78 4.8968-2.95 10.034-8.62 15.188-16.75 3.087-4.874 6.491-9.111 7.531-9.441 0.139-0.045 0.275-0.078 0.437-0.094zm142.41 6.844c0.85 0 1.68 0.063 2.47 0.156 7.95 0.934 14.56 3.505 14.56 5.655 0 2.6-5.94 10.02-9.81 12.28-2.49 1.46-5.52 1.96-12.72 2.13-8.66 0.2-9.62 0.03-11.56-2.03-1.78-1.89-2-2.97-1.41-6.6 0.39-2.38 1.66-5.34 2.81-6.59 2.6-2.82 9.7-5 15.66-5.001zm-88.251 4.871c2.076 0 5.087 0.21 9.781 0.5 7.15 0.46 16 0.71 19.66 0.6 6.32-0.2 6.78-0.06 9.25 2.87 1.42 1.7 2.59 3.72 2.59 4.47 0 1.56-10.36 7.63-17.06 10-9.206 3.26-10.916 3.29-19.94 0.35-4.675-1.53-9.88-2.83-11.562-2.85-1.683-0.02-3.881-0.65-4.907-1.41-1.798-1.31-1.796-1.5 0.781-5.9 1.471-2.51 3.925-5.58 5.438-6.78 1.655-1.32 2.509-1.84 5.969-1.85zm45.721 1.91c4.71 0 5.75 0.36 7.09 2.41 0.86 1.31 1.82 4.13 2.13 6.25 0.35 2.46 1.5 4.66 3.18 6.09 2.61 2.21 2.09 3-0.84 1.31-0.82-0.47-4.87-1.37-8.97-2s-7.67-1.36-7.94-1.62c-0.26-0.27 0.52-1.19 1.72-2.03 2.27-1.59 2.92-4.84 1.19-5.91-0.55-0.34-1.46-1.49-2.03-2.56-0.97-1.82-0.68-1.94 4.47-1.94zm-8.97 13c4.16 1.49 10.58 3 12.75 3 1.59 0 4.79 0.82 7.09 1.84 2.31 1.02 5.09 2.21 6.19 2.63 1.56 0.6 0.78 1.04-3.53 1.94-7.31 1.52-11.62 4.69-13.09 9.62-1.06 3.52-0.92 4.51 1.46 9.81 1.46 3.25 2.66 6.3 2.66 6.78 0 0.49-2.4 1-5.31 1.16l-5.31 0.28-1.63-5.28c-1.21-3.91-1.59-8.71-1.47-18.53 0.09-7.29 0.17-13.26 0.19-13.25zm33 0.72c0.53-0.02 1.57 0.81 3.84 2.66 2.3 1.86 5.65 4.12 7.44 5.03 1.79 0.9 3.25 1.86 3.25 2.12 0 0.65-0.28 0.59-1.91-0.44-0.77-0.49-5.27-1.72-10-2.71-6.34-1.34-7.93-1.95-6.09-2.38 1.58-0.37 2.61-1.41 2.81-2.81 0.14-0.94 0.25-1.46 0.66-1.47zm13.5 1.37c0.97 0.01 2.04 0.06 3.15 0.13 10.65 0.61 13.31 3.26 17.29 17.09 3.93 13.68 2.88 25.07-3.63 38.94-1.74 3.71-3.41 6.7-3.72 6.66-1.53-0.23-7.74-3.24-9.06-4.41-0.82-0.73-4.08-2.32-7.25-3.5-3.98-1.49-6.2-2.97-7.16-4.81-2.3-4.45-9.76-11.11-15.4-13.78-4.49-2.13-5.62-3.26-7.35-7.22-3.32-7.64-3.52-11.81-0.72-14.81 3.35-3.59 7.63-5.61 12.88-6.1 11.89-1.1 16.88 0.1 24.06 5.78 5.5 4.35 6.91 2.96 3.75-3.68-0.55-1.17-3.65-3.6-6.87-5.41-3.23-1.81-5.58-3.72-5.25-4.25 0.25-0.41 2.36-0.65 5.28-0.63zm-49.47 0.19c0.08 0.01 0.15 0.03 0.19 0.06 1.56 1.56 2.13 8.8 1.15 14.47-1.11 6.52-0.91 8.39 1.6 16.44 1.31 4.2 1.28 4.75-0.03 4.75-1.37 0-3.99-4.89-5.91-11-0.43-1.38-1.84-3.49-3.12-4.69-2.14-1.99-2.3-2.81-1.91-9.43 0.42-7.2 0.45-7.31 4.06-9.16 1.76-0.9 3.4-1.49 3.97-1.44zm-11.25 5.1c0.31 0.01 0.54 0.06 0.63 0.15 1.39 1.4 0.27 9.49-2.41 17.5-1.56 4.67-3.12 11.39-3.47 14.97-0.709 7.21-1.369 6.57-3-2.81-0.635-3.66-2.774-9.44-5.062-13.78-4.299-8.17-4.505-9.1-2.813-12.82 0.938-2.06 1.648-2.37 4-1.9 1.567 0.31 4.919 0.01 7.465-0.63 1.92-0.48 3.73-0.73 4.66-0.68zm-18.812 7.62c0.382 0.01 0.562 0.45 0.562 1.34 0 0.75 1.357 4.01 3 7.25s2.993 6.2 3 6.53c0.007 0.34-2.712 0.86-6.031 1.16-3.32 0.3-7.133 1.25-8.469 2.13-2.971 1.94-2.533 2.07-5.25-1.38-1.244-1.58-4.237-3.64-6.656-4.56-2.56-0.98-4.618-2.46-4.906-3.56-0.274-1.05-0.345-1.91-0.157-1.91 0.189 0 4.052 0.88 8.594 1.97 4.542 1.08 8.335 1.87 8.437 1.75 0.103-0.12 1.644-2.58 3.407-5.47 1.961-3.21 3.45-5 4.281-5.22 0.062-0.02 0.133-0.03 0.188-0.03zm-35.938 6.06c7.06-0.04 8.955 0.69 10.156 3.88 0.688 1.82 2.05 3.03 3.938 3.5 1.59 0.39 4.389 1.65 6.218 2.78 3.86 2.38 3.794 5.08-0.25 9.12-1.327 1.33-3.775 5.12-5.437 8.41-3.313 6.56-7.477 10.63-13.625 13.31-5.337 2.33-14.014 2.9-25.188 1.66l-9.187-1.03-0.594-3.6c-0.876-5.24 1.094-17.17 3.844-23.28 1.314-2.91 4.05-7.24 6.094-9.59l3.719-4.25 2.031 2.56c1.893 2.41 2.139 2.48 3.843 0.94 2.766-2.5 8.871-4.37 14.438-4.41zm56.47 1.94c1.97 0 6.36 7.63 8.5 14.75 0.56 1.89 0.29 2.26-1.66 2.22-2.87-0.06-10.81-5.57-10.81-7.5 0-2.07 3.1-9.47 3.97-9.47zm-15.876 9c2.57 0 2.766 0.36 3.875 6.75 1.238 7.14 4.335 15.25 5.811 15.25 0.49 0 0.96-3.43 1.06-7.62 0.27-10.35 0.75-11.02 5.69-7.72 2.18 1.45 4.17 2.8 4.41 3 0.23 0.19-0.28 0.91-1.13 1.59s-3.55 4.4-6 8.25c-5.213 8.19-10.483 11.61-20.81 13.53-3.575 0.67-8.502 1.84-10.938 2.59-4.573 1.42-7.808 1.52-14.374 0.47l-3.813-0.59 3.437-3.34c1.904-1.84 5.07-6.57 7.032-10.5 1.962-3.94 5.609-9.74 8.094-12.88 3.771-4.76 5.375-5.96 9.718-7.25 2.861-0.85 6.444-1.53 7.938-1.53zm40.436 6.25c1.65-0.01 3.02 0.19 4.38 0.59 6.11 1.84 13.05 7.16 16.87 12.91 4.2 6.32 3.8 8.04-2.37 9.91-10.77 3.25-24.45-1.59-31.88-11.32-5.84-7.65-4.83-9.36 6.91-11.4 2.51-0.44 4.44-0.68 6.09-0.69z"/>
  </g>
  <metadata>
    <rdf:RDF>
      <cc:Work>
        <dc:format>image/svg+xml</dc:format>
        <dc:type rdf:resource="http://purl.org/dc/dcmitype/StillImage"/>
        <cc:license rdf:resource="http://creativecommons.org/licenses/publicdomain/"/>
        <dc:publisher>
          <cc:Agent rdf:about="http://openclipart.org/">
            <dc:title>Openclipart</dc:title>
          </cc:Agent>
        </dc:publisher>
        <dc:title>Red rose</dc:title>
        <dc:date>2007-08-16T21:14:21</dc:date>
        <dc:description>clip art, clipart, flower, love, nature, red, rose, valentine, yellow, </dc:description>
        <dc:source>http://openclipart.org/detail/4824/red-rose-by-zeimusu</dc:source>
        <dc:creator>
          <cc:Agent>
            <dc:title>zeimusu</dc:title>
          </cc:Agent>
        </dc:creator>
        <dc:subject>
          <rdf:Bag>
            <rdf:li>clip art</rdf:li>
            <rdf:li>clipart</rdf:li>
            <rdf:li>flower</rdf:li>
            <rdf:li>love</rdf:li>
            <rdf:li>nature</rdf:li>
            <rdf:li>red</rdf:li>
            <rdf:li>rose</rdf:li>
            <rdf:li>valentine</rdf:li>
            <rdf:li>yellow</rdf:li>
          </rdf:Bag>
        </dc:subject>
      </cc:Work>
      <cc:License rdf:about="http://creativecommons.org/licenses/publicdomain/">
        <cc:permits rdf:resource="http://creativecommons.org/ns#Reproduction"/>
        <cc:permits rdf:resource="http://creativecommons.org/ns#Distribution"/>
        <cc:permits rdf:resource="http://creativecommons.org/ns#DerivativeWorks"/>
      </cc:License>
    </rdf:RDF>
  </metadata>
</svg>
